<?xml version="1.0" encoding="UTF-8"?>
<svg id="Layer_1" data-name="Layer 1" xmlns="http://www.w3.org/2000/svg" xmlns:xlink="http://www.w3.org/1999/xlink" viewBox="0 0 32.08 27.52">
  <defs>
    <radialGradient id="radial-gradient" cx="11.29" cy="18.67" fx="11.29" fy="18.67" r="12.19" gradientUnits="userSpaceOnUse">
      <stop offset="0" stop-color="#fff" stop-opacity=".1"/>
      <stop offset="1" stop-color="#fff" stop-opacity="0"/>
    </radialGradient>
    <radialGradient id="radial-gradient-2" cx="14" cy="12.84" fx="14" fy="12.84" r="5.23" xlink:href="#radial-gradient"/>
    <radialGradient id="radial-gradient-3" cx="1.09" cy="2.14" fx="1.09" fy="2.14" r="38.31" xlink:href="#radial-gradient"/>
  </defs>
  <path d="M18.06,11.59c-.16.4-.44.74-.8.98-.36.24-.79.37-1.22.37-.58,0-1.13-.23-1.55-.64-.41-.41-.64-.97-.64-1.55,0-.43.13-.85.37-1.21.24-.36.58-.64.98-.81.4-.16.84-.21,1.27-.12.42.08.81.29,1.12.6.3.3.51.69.6,1.12.08.42.04.86-.13,1.26Z" style="fill: #0f9d58;"/>
  <path d="M21.15,17.32v1.45h-10.21v-1.45c0-.58.34-1.12.89-1.58h.01c.98-.81,2.63-1.34,4.2-1.34s3.22.53,4.21,1.34h.01c.55.46.89,1,.89,1.58Z" style="fill: #0f9d58;"/>
  <path d="M20.26,15.74h-.01c-1.13.36-2.02,1.04-2.02,1.84v1.19h2.92v-1.45c0-.58-.34-1.12-.89-1.58ZM11.84,15.74h-.01c-.55.46-.89,1-.89,1.58v1.45h2.91v-1.19c0-.8-.88-1.48-2.01-1.84Z" style="fill: #57bb8a;"/>
  <path d="M18.19,10.33c-.09-.43-.3-.82-.6-1.12-.31-.31-.7-.52-1.12-.6-.43-.09-.87-.04-1.27.12-.4.17-.74.45-.98.81-.24.36-.37.78-.37,1.21,0,.58.23,1.14.64,1.55.42.41.97.64,1.55.64.43,0,.86-.13,1.22-.37.36-.24.64-.58.8-.98.17-.4.21-.84.13-1.26ZM20.26,15.74h-.01c-.99-.81-2.64-1.34-4.21-1.34s-3.22.53-4.2,1.34h-.01c-.55.46-.89,1-.89,1.58v1.45h10.21v-1.45c0-.58-.34-1.12-.89-1.58Z" style="fill: #f7f7f7;"/>
  <path d="M31.44.64C31.03.23,30.48,0,29.9,0H2.19C1.61,0,1.05.23.64.64s-.64.97-.64,1.55h32.08c0-.58-.23-1.14-.64-1.55Z" style="fill: #f4b400;"/>
  <path d="M28.43,27.52H2.19c-.58,0-1.14-.23-1.55-.64s-.64-.96-.64-1.54v-.19c0,.58.23,1.14.64,1.55s.97.64,1.55.64h26.06l.18.18Z" style="fill: #fff;"/>
  <path d="M32.08,2.19c0-.58-.23-1.14-.64-1.55s-.96-.64-1.54-.64H2.19c-.58,0-1.14.23-1.55.64s-.64.97-.64,1.55h32.08Z" style="fill: #fff; isolation: isolate; opacity: .2;"/>
  <path d="M11.72,13.39c-.12.3-.33.55-.6.73s-.59.28-.91.28c-.44,0-.85-.17-1.16-.48s-.48-.73-.48-1.16c0-.33.09-.64.27-.91.18-.27.44-.48.74-.61.3-.12.63-.15.95-.09.32.06.61.22.84.45s.38.52.45.84c.06.32.03.65-.1.95Z" style="fill: #94bae0;"/>
  <path d="M11.83,15.74c-.55.46-.89,1-.89,1.58v1.45h-4.38v-1.19c0-1.16,1.89-2.09,3.65-2.09.55,0,1.11.09,1.62.25Z" style="fill: #94bae0;"/>
  <path d="M25.52,17.58v1.19h-4.37v-1.45c0-.58-.34-1.12-.89-1.58.51-.16,1.07-.25,1.62-.25,1.75,0,3.64.93,3.64,2.09Z" style="fill: #94bae0;"/>
  <path d="M21.15,17.32v1.45h-10.21v-1.45c0-.58.34-1.12.89-1.58h.01c.98-.81,2.63-1.34,4.2-1.34s3.22.53,4.21,1.34h.01c.55.46.89,1,.89,1.58Z" style="fill: url(#radial-gradient);"/>
  <path d="M18.06,11.59c-.16.4-.44.74-.8.98-.36.24-.79.37-1.22.37-.58,0-1.13-.23-1.55-.64-.41-.41-.64-.97-.64-1.55,0-.43.13-.85.37-1.21.24-.36.58-.64.98-.81.4-.16.84-.21,1.27-.12.42.08.81.29,1.12.6.3.3.51.69.6,1.12.08.42.04.86-.13,1.26Z" style="fill: url(#radial-gradient-2);"/>
  <path d="M23.39,13.39c-.12.3-.33.55-.6.73-.27.18-.59.28-.91.28-.44,0-.86-.17-1.17-.48-.3-.31-.48-.73-.48-1.16,0-.33.1-.64.28-.91s.44-.48.74-.61c.3-.12.63-.15.95-.09.31.06.61.22.84.45.22.23.38.52.44.84.07.32.03.65-.09.95Z" style="fill: #94bae0;"/>
  <path d="M31.44.64C31.03.23,30.48,0,29.9,0H2.19C1.61,0,1.05.23.64.64s-.64.97-.64,1.55h32.08c0-.58-.23-1.14-.64-1.55Z" style="fill: url(#radial-gradient-3);"/>
  <path d="M32.08,25.15v.19c0,.58-.23,1.13-.64,1.54-.41.41-.96.64-1.54.64h-1.47l-.18-.18h1.65c.58,0,1.13-.23,1.54-.64.41-.41.64-.97.64-1.55Z" style="fill: #fff;"/>
  <path d="M31.44.64C31.03.23,30.48,0,29.9,0H2.19C1.61,0,1.05.23.64.64s-.64.97-.64,1.55v22.96c0,.58.23,1.14.64,1.55s.97.64,1.55.64h27.71c.58,0,1.13-.23,1.54-.64.41-.41.64-.97.64-1.55V2.19c0-.58-.23-1.14-.64-1.55ZM29.17,24.79H2.92V2.55h26.25v22.24Z" style="fill: #fff;"/>
</svg>